<svg xmlns="http://www.w3.org/2000/svg" width="492" height="447" viewBox="0 0 492 447">
  <g id="FadeIn" transform="translate(-338 -216)">
    <g id="Rectangle_2" data-name="Rectangle 2" transform="translate(338 216)" fill="#fff" stroke="#707070" stroke-width="20">
      <rect width="375" height="325" rx="29" stroke="none"/>
      <rect x="10" y="10" width="355" height="305" rx="19" fill="none"/>
    </g>
    <g id="Rectangle_1" data-name="Rectangle 1" transform="translate(455 338)" fill="#fff" stroke="#707070" stroke-width="20">
      <rect width="375" height="325" rx="35" stroke="none"/>
      <rect x="10" y="10" width="355" height="305" rx="25" fill="none"/>
    </g>
    <line id="Line_1" data-name="Line 1" x1="68" y2="58" transform="translate(354.5 230.5)" fill="none" stroke="#707070" stroke-width="20"/>
    <path id="Path_1" data-name="Path 1" d="M135.662,0,44.514,72.227,0,107.5" transform="translate(354.5 230.5)" fill="none" stroke="#707070" stroke-width="20"/>
    <path id="Path_2" data-name="Path 2" d="M192.824,0,63.27,99.854,0,148.621" transform="translate(354.5 238.65)" fill="none" stroke="#707070" stroke-width="20"/>
    <path id="Path_3" data-name="Path 3" d="M257.131,0,84.371,131.539,0,195.779" transform="translate(354.5 238.65)" fill="none" stroke="#707070" stroke-width="20"/>
    <line id="Line_2" data-name="Line 2" x1="142" y2="107" transform="translate(534.5 238.5)" fill="none" stroke="#707070" stroke-width="20"/>
    <line id="Line_3" data-name="Line 3" x1="110" y2="84" transform="translate(354.5 401.5)" fill="none" stroke="#707070" stroke-width="20"/>
    <line id="Line_4" data-name="Line 4" x1="101" y2="77" transform="translate(597.5 268.5)" fill="none" stroke="#707070" stroke-width="20"/>
    <line id="Line_5" data-name="Line 5" x1="103" y2="81" transform="translate(361.5 443.5)" fill="none" stroke="#707070" stroke-width="20"/>
    <path id="Path_4" data-name="Path 4" d="M42.329,0l-16.7,15.454L0,39.169" transform="translate(422.5 485.331)" fill="none" stroke="#707070" stroke-width="20"/>
    <g id="Rectangle_3" data-name="Rectangle 3" transform="translate(455 338)" fill="#fff" stroke="#707070" stroke-width="20">
      <rect width="375" height="325" rx="35" stroke="none"/>
      <rect x="10" y="10" width="355" height="305" rx="25" fill="none"/>
    </g>
    <path id="Path_5" data-name="Path 5" d="M51,0,30.879,16.768,0,42.5" transform="translate(651.5 303)" fill="none" stroke="#707070" stroke-width="20"/>
    <line id="Line_11" data-name="Line 11" y1="65" x2="83" transform="translate(483.5 364.5)" fill="none" stroke="#707070" stroke-width="20"/>
    <line id="Line_12" data-name="Line 12" y1="106" x2="133" transform="translate(483.5 364.5)" fill="none" stroke="#707070" stroke-width="20"/>
    <line id="Line_13" data-name="Line 13" y1="136" x2="177" transform="translate(490.5 368.5)" fill="none" stroke="#707070" stroke-width="20"/>
    <line id="Line_14" data-name="Line 14" y1="98" x2="130" transform="translate(547.5 410.5)" fill="none" stroke="#707070" stroke-width="20"/>
    <line id="Line_15" data-name="Line 15" y1="64" x2="80" transform="translate(605.5 444.5)" fill="none" stroke="#707070" stroke-width="20"/>
    <line id="Line_16" data-name="Line 16" y1="25" x2="32" transform="translate(653.5 484.5)" fill="none" stroke="#707070" stroke-width="20"/>
    <line id="Line_17" data-name="Line 17" y1="25" x2="32" transform="translate(483.5 368.5)" fill="none" stroke="#707070" stroke-width="20"/>
  </g>
</svg>
